<svg width="53" height="45" viewBox="0 0 53 45" fill="none" xmlns="http://www.w3.org/2000/svg">
<path d="M41.8472 45C41.137 45 40.3579 44.7655 39.5152 44.2982L20.4298 30.127C20.2161 29.9688 20.0853 29.7219 20.0712 29.4554C20.0588 29.1889 20.1648 28.9312 20.3627 28.7518L42.9691 8.29272C43.3312 7.96403 43.8895 7.99245 44.2163 8.35846C44.5432 8.72269 44.5131 9.28414 44.151 9.61283L22.3502 29.3452L40.4657 42.8057C40.9445 43.0634 41.7536 43.3903 42.3295 43.122C42.9161 42.8519 43.2058 41.9902 43.3471 41.3151L51.0763 4.68418C51.3767 3.47423 51.2318 2.50058 50.6965 2.05284C50.2884 1.71171 49.6807 1.68683 49.0235 1.98532L3.59164 19.607C2.19773 20.1702 1.7596 20.7494 1.76666 20.9413C1.77196 21.0674 2.0723 21.4157 2.968 21.6911L14.2306 25.2268L26.5955 17.3807C27.0089 17.1213 27.5531 17.2439 27.8128 17.6579C28.0725 18.0719 27.9506 18.6209 27.5372 18.882L14.8277 26.9466C14.6086 27.0852 14.3383 27.1207 14.0928 27.0443L2.44683 23.3878C0.379822 22.7518 0.0264868 21.6289 0.00175335 21.0159C-0.0335802 20.1755 0.448722 18.9602 2.9468 17.9546L48.3415 0.350732C49.5729 -0.214269 50.8944 -0.0934514 51.8289 0.690087C52.9119 1.598 53.2653 3.20061 52.7989 5.08572L45.0767 41.6828C44.7516 43.2428 44.0768 44.2715 43.068 44.737C42.6882 44.9129 42.2818 45 41.8472 45Z" fill="#777777"/>
<path d="M41.8472 45C41.137 45 40.3579 44.7655 39.5152 44.2982L27.6432 35.4874C27.251 35.196 27.1662 34.6381 27.4577 34.2454C27.7474 33.851 28.3021 33.7657 28.6926 34.0589L40.4657 42.8057C40.9445 43.0634 41.7536 43.3903 42.3295 43.122C42.9161 42.8519 43.2058 41.9902 43.3471 41.3151L51.0763 4.68418C51.3767 3.47423 51.2318 2.50058 50.6965 2.05284C50.2884 1.71171 49.6807 1.68683 49.0235 1.98532L3.59164 19.607C2.19773 20.1702 1.7596 20.7494 1.76666 20.9413C1.77196 21.0674 2.0723 21.4157 2.968 21.6911L14.6175 25.3476C14.8966 25.4346 15.1139 25.6567 15.2005 25.9374L19.2055 39.1936C19.3133 39.4904 19.3963 39.7853 19.4688 40.0411C19.5253 40.2437 19.596 40.496 19.6437 40.5706C19.6366 40.5617 19.7779 40.6044 20.1542 40.6061C20.9439 40.6061 21.2443 40.3094 21.8449 39.7213L24.7776 36.8537C25.1274 36.509 25.6857 36.5197 26.0267 36.8714C26.3659 37.2232 26.3588 37.7865 26.009 38.1276L23.1258 40.9437C22.4156 41.642 21.663 42.3811 20.1542 42.3811C18.4229 42.3811 18.0731 41.61 17.7674 40.5226C17.7056 40.3023 17.6349 40.0482 17.5289 39.7551L13.6458 26.904L2.44683 23.3878C0.379822 22.7518 0.0264868 21.6289 0.00175335 21.0159C-0.0335802 20.1755 0.448722 18.9602 2.9468 17.9546L48.3415 0.350732C49.5729 -0.214269 50.8944 -0.0934514 51.8289 0.690087C52.9119 1.598 53.2653 3.20061 52.7989 5.08572L45.0767 41.6828C44.7516 43.2428 44.0768 44.2715 43.068 44.737C42.6882 44.9129 42.2818 45 41.8472 45Z" fill="#777777"/>
<path d="M30.9171 16.2841C30.9171 16.7727 30.5196 17.1725 30.0337 17.1725C29.5479 17.1725 29.1504 16.7727 29.1504 16.2841C29.1504 15.7955 29.5479 15.3958 30.0337 15.3958C30.5196 15.3958 30.9171 15.7955 30.9171 16.2841Z" fill="#777777"/>
</svg>
