<svg width="47" height="47" viewBox="0 0 47 47" fill="none" xmlns="http://www.w3.org/2000/svg">
<path d="M23.5 1C17.5326 1 11.8097 3.37053 7.59012 7.5901C3.37056 11.8097 1.00004 17.5326 1.00004 23.5C0.990693 28.6808 2.72122 33.7146 5.91417 37.7945C9.10712 41.8744 13.5775 44.764 18.6087 46V40.1304H16.6522C11.5261 40.1304 9.72611 32.3043 6.86959 32.3043C12.3283 32.3043 13.3848 36.2174 16.6522 36.2174C16.9175 36.2528 17.1874 36.2266 17.4409 36.1408C17.6944 36.055 17.9248 35.912 18.114 35.7227C18.3033 35.5334 18.4464 35.3031 18.5322 35.0496C18.6179 34.7961 18.6441 34.5262 18.6087 34.2609V33.5761C12.9152 31.9717 8.82611 27.7065 8.82611 22.5217C8.8719 19.8244 9.97496 17.253 11.8978 15.3609C11.4077 14.3031 11.2266 13.1283 11.3755 11.9721C11.5243 10.8158 11.9971 9.72521 12.7391 8.82609C14.529 9.36342 16.1387 10.378 17.3957 11.7609C21.3392 10.3287 25.6608 10.3287 29.6043 11.7609C30.8613 10.378 32.471 9.36342 34.2609 8.82609C35.0029 9.72521 35.4757 10.8158 35.6245 11.9721C35.7734 13.1283 35.5923 14.3031 35.1022 15.3609C37.025 17.253 38.1281 19.8244 38.1739 22.5217C38.1739 27.8826 33.6935 32.3043 27.5696 33.7913C28.2004 35.1621 28.4827 36.6676 28.3913 38.1739V46C33.4225 44.764 37.8929 41.8744 41.0858 37.7945C44.2788 33.7146 46.0093 28.6808 46 23.5C46 17.5326 43.6294 11.8097 39.4099 7.5901C35.1903 3.37053 29.4674 1 23.5 1V1Z" stroke="#777777" stroke-linecap="round" stroke-linejoin="round"/>
</svg>
