<svg width="60" height="45" viewBox="0 0 60 45" fill="none" xmlns="http://www.w3.org/2000/svg">
<path d="M15.1772 23.8396L0 12.5797V6.87152C0 3.08455 3.11901 0.00268555 6.95379 0.00268555C8.43932 0.00268555 9.86887 0.480018 11.0865 1.38319L15.1752 4.42148V23.8396H15.1772ZM1.99937 11.5894L13.1778 19.8823V5.4118L9.88886 2.96968C9.01914 2.32597 8.00346 1.98332 6.95379 1.98332C4.57055 1.98332 1.99937 3.85304 1.99937 6.87152V11.5894Z" fill="#777777"/>
<path d="M44.8223 23.8396V4.42148L48.911 1.38517C50.1306 0.480018 51.5601 0.00268555 53.0457 0.00268555C56.8804 0.00268555 59.9994 3.08455 59.9994 6.87152V12.5797L44.8223 23.8396ZM46.8216 5.4118V19.8823L58.0001 11.5894V6.87152C58.0001 3.85304 55.4289 1.98332 53.0457 1.98332C51.996 1.98332 50.9803 2.32399 50.1086 2.96968L46.8216 5.4118Z" fill="#777777"/>
<path d="M55.0378 45H45.8127C45.2609 45 44.8131 44.5563 44.8131 44.0097V26.184C44.8131 25.6373 45.2609 25.1937 45.8127 25.1937C46.3646 25.1937 46.8124 25.6373 46.8124 26.184V43.0194H55.0378C56.6653 43.0194 57.9909 41.7082 57.9909 40.0979V6.86289C57.9909 4.97732 56.9752 3.34924 55.2717 2.50351C53.5623 1.6558 51.6289 1.82613 50.0994 2.96104L30.5996 17.4316C30.2437 17.695 29.7558 17.695 29.4 17.4316L9.89814 2.96104C8.36863 1.8301 6.43524 1.65778 4.72778 2.50351C3.02632 3.34924 2.00864 4.97732 2.00864 6.86289V40.0979C2.00864 41.7082 3.33422 43.0194 4.96171 43.0194H13.1871V26.184C13.1871 25.6373 13.635 25.1937 14.1868 25.1937C14.7386 25.1937 15.1865 25.6373 15.1865 26.184V44.0097C15.1865 44.5563 14.7386 45 14.1868 45H4.96171C2.23057 45 0.00927734 42.8015 0.00927734 40.0979V6.86289C0.00927734 4.25241 1.47481 1.90338 3.83406 0.732824C6.19931 -0.437731 8.98043 -0.192133 11.0978 1.37653L29.9998 15.4014L48.9018 1.37653C51.0231 -0.192133 53.8042 -0.439712 56.1675 0.734804C58.5247 1.90338 59.9902 4.25241 59.9902 6.86289V40.0979C59.9902 42.8015 57.769 45 55.0378 45Z" fill="#777777"/>
<path d="M29.8533 34.7131C29.6441 34.7131 29.433 34.6498 29.2557 34.5214L13.5031 23.1662C13.063 22.8479 12.9733 22.2478 13.302 21.8242C13.6326 21.4024 14.256 21.3123 14.6962 21.6305L29.8533 32.5563L45.0083 21.6305C45.4485 21.3142 46.0739 21.4005 46.4025 21.8242C46.7332 22.2478 46.6415 22.8498 46.2014 23.1662L30.4508 34.5214C30.2735 34.6498 30.0624 34.7131 29.8533 34.7131Z" fill="#777777"/>
</svg>
